%TF.GenerationSoftware,KiCad,Pcbnew,7.0.7*%
%TF.CreationDate,2023-11-04T12:16:55+01:00*%
%TF.ProjectId,amoeba-ulp,616d6f65-6261-42d7-956c-702e6b696361,rev?*%
%TF.SameCoordinates,Original*%
%TF.FileFunction,Drillmap*%
%TF.FilePolarity,Positive*%
%FSLAX45Y45*%
G04 Gerber Fmt 4.5, Leading zero omitted, Abs format (unit mm)*
G04 Created by KiCad (PCBNEW 7.0.7) date 2023-11-04 12:16:55*
%MOMM*%
%LPD*%
G01*
G04 APERTURE LIST*
%ADD10C,0.100000*%
%ADD11C,0.200000*%
%ADD12C,0.105000*%
%ADD13C,0.120000*%
G04 APERTURE END LIST*
D10*
X10860000Y-10340000D02*
G75*
G03*
X10860000Y-10340000I-150000J0D01*
G01*
X11420000Y-9800000D02*
G75*
G03*
X11620000Y-10000000I200000J0D01*
G01*
X11620000Y-11280000D02*
G75*
G03*
X11420000Y-11480000I0J-200000D01*
G01*
X10000000Y-11480000D02*
G75*
G03*
X9800000Y-11280000I-200000J0D01*
G01*
X9800000Y-10000000D02*
G75*
G03*
X10000000Y-9800000I0J200000D01*
G01*
X11620000Y-11280000D02*
X11620000Y-10000000D01*
X11420000Y-9800000D02*
X10000000Y-9800000D01*
X10000000Y-11480000D02*
X11420000Y-11480000D01*
X9800000Y-10000000D02*
X9800000Y-11280000D01*
D11*
D12*
X10077500Y-10707500D02*
X10182500Y-10812500D01*
X10182500Y-10707500D02*
X10077500Y-10812500D01*
D13*
X11350000Y-10314000D02*
G75*
G03*
X11350000Y-10314000I-60000J0D01*
G01*
X11350000Y-10966000D02*
G75*
G03*
X11350000Y-10966000I-60000J0D01*
G01*
D11*
X10055777Y-11796484D02*
X10055777Y-11596484D01*
X10055777Y-11596484D02*
X10103396Y-11596484D01*
X10103396Y-11596484D02*
X10131967Y-11606008D01*
X10131967Y-11606008D02*
X10151015Y-11625055D01*
X10151015Y-11625055D02*
X10160539Y-11644103D01*
X10160539Y-11644103D02*
X10170063Y-11682198D01*
X10170063Y-11682198D02*
X10170063Y-11710769D01*
X10170063Y-11710769D02*
X10160539Y-11748865D01*
X10160539Y-11748865D02*
X10151015Y-11767912D01*
X10151015Y-11767912D02*
X10131967Y-11786960D01*
X10131967Y-11786960D02*
X10103396Y-11796484D01*
X10103396Y-11796484D02*
X10055777Y-11796484D01*
X10255777Y-11796484D02*
X10255777Y-11663150D01*
X10255777Y-11701246D02*
X10265301Y-11682198D01*
X10265301Y-11682198D02*
X10274824Y-11672674D01*
X10274824Y-11672674D02*
X10293872Y-11663150D01*
X10293872Y-11663150D02*
X10312920Y-11663150D01*
X10379586Y-11796484D02*
X10379586Y-11663150D01*
X10379586Y-11596484D02*
X10370063Y-11606008D01*
X10370063Y-11606008D02*
X10379586Y-11615531D01*
X10379586Y-11615531D02*
X10389110Y-11606008D01*
X10389110Y-11606008D02*
X10379586Y-11596484D01*
X10379586Y-11596484D02*
X10379586Y-11615531D01*
X10503396Y-11796484D02*
X10484348Y-11786960D01*
X10484348Y-11786960D02*
X10474824Y-11767912D01*
X10474824Y-11767912D02*
X10474824Y-11596484D01*
X10608158Y-11796484D02*
X10589110Y-11786960D01*
X10589110Y-11786960D02*
X10579586Y-11767912D01*
X10579586Y-11767912D02*
X10579586Y-11596484D01*
X10836729Y-11796484D02*
X10836729Y-11596484D01*
X10836729Y-11596484D02*
X10903396Y-11739341D01*
X10903396Y-11739341D02*
X10970063Y-11596484D01*
X10970063Y-11596484D02*
X10970063Y-11796484D01*
X11151015Y-11796484D02*
X11151015Y-11691722D01*
X11151015Y-11691722D02*
X11141491Y-11672674D01*
X11141491Y-11672674D02*
X11122444Y-11663150D01*
X11122444Y-11663150D02*
X11084348Y-11663150D01*
X11084348Y-11663150D02*
X11065301Y-11672674D01*
X11151015Y-11786960D02*
X11131967Y-11796484D01*
X11131967Y-11796484D02*
X11084348Y-11796484D01*
X11084348Y-11796484D02*
X11065301Y-11786960D01*
X11065301Y-11786960D02*
X11055777Y-11767912D01*
X11055777Y-11767912D02*
X11055777Y-11748865D01*
X11055777Y-11748865D02*
X11065301Y-11729817D01*
X11065301Y-11729817D02*
X11084348Y-11720293D01*
X11084348Y-11720293D02*
X11131967Y-11720293D01*
X11131967Y-11720293D02*
X11151015Y-11710769D01*
X11246253Y-11663150D02*
X11246253Y-11863150D01*
X11246253Y-11672674D02*
X11265301Y-11663150D01*
X11265301Y-11663150D02*
X11303396Y-11663150D01*
X11303396Y-11663150D02*
X11322443Y-11672674D01*
X11322443Y-11672674D02*
X11331967Y-11682198D01*
X11331967Y-11682198D02*
X11341491Y-11701246D01*
X11341491Y-11701246D02*
X11341491Y-11758388D01*
X11341491Y-11758388D02*
X11331967Y-11777436D01*
X11331967Y-11777436D02*
X11322443Y-11786960D01*
X11322443Y-11786960D02*
X11303396Y-11796484D01*
X11303396Y-11796484D02*
X11265301Y-11796484D01*
X11265301Y-11796484D02*
X11246253Y-11786960D01*
X11427205Y-11777436D02*
X11436729Y-11786960D01*
X11436729Y-11786960D02*
X11427205Y-11796484D01*
X11427205Y-11796484D02*
X11417682Y-11786960D01*
X11417682Y-11786960D02*
X11427205Y-11777436D01*
X11427205Y-11777436D02*
X11427205Y-11796484D01*
X11427205Y-11672674D02*
X11436729Y-11682198D01*
X11436729Y-11682198D02*
X11427205Y-11691722D01*
X11427205Y-11691722D02*
X11417682Y-11682198D01*
X11417682Y-11682198D02*
X11427205Y-11672674D01*
X11427205Y-11672674D02*
X11427205Y-11691722D01*
D12*
X9690000Y-12072500D02*
X9795000Y-12177500D01*
X9795000Y-12072500D02*
X9690000Y-12177500D01*
D11*
X10160539Y-12216484D02*
X10046253Y-12216484D01*
X10103396Y-12216484D02*
X10103396Y-12016484D01*
X10103396Y-12016484D02*
X10084348Y-12045055D01*
X10084348Y-12045055D02*
X10065301Y-12064103D01*
X10065301Y-12064103D02*
X10046253Y-12073627D01*
X10246253Y-12197436D02*
X10255777Y-12206960D01*
X10255777Y-12206960D02*
X10246253Y-12216484D01*
X10246253Y-12216484D02*
X10236729Y-12206960D01*
X10236729Y-12206960D02*
X10246253Y-12197436D01*
X10246253Y-12197436D02*
X10246253Y-12216484D01*
X10379586Y-12016484D02*
X10398634Y-12016484D01*
X10398634Y-12016484D02*
X10417682Y-12026008D01*
X10417682Y-12026008D02*
X10427205Y-12035531D01*
X10427205Y-12035531D02*
X10436729Y-12054579D01*
X10436729Y-12054579D02*
X10446253Y-12092674D01*
X10446253Y-12092674D02*
X10446253Y-12140293D01*
X10446253Y-12140293D02*
X10436729Y-12178388D01*
X10436729Y-12178388D02*
X10427205Y-12197436D01*
X10427205Y-12197436D02*
X10417682Y-12206960D01*
X10417682Y-12206960D02*
X10398634Y-12216484D01*
X10398634Y-12216484D02*
X10379586Y-12216484D01*
X10379586Y-12216484D02*
X10360539Y-12206960D01*
X10360539Y-12206960D02*
X10351015Y-12197436D01*
X10351015Y-12197436D02*
X10341491Y-12178388D01*
X10341491Y-12178388D02*
X10331967Y-12140293D01*
X10331967Y-12140293D02*
X10331967Y-12092674D01*
X10331967Y-12092674D02*
X10341491Y-12054579D01*
X10341491Y-12054579D02*
X10351015Y-12035531D01*
X10351015Y-12035531D02*
X10360539Y-12026008D01*
X10360539Y-12026008D02*
X10379586Y-12016484D01*
X10627205Y-12016484D02*
X10531967Y-12016484D01*
X10531967Y-12016484D02*
X10522444Y-12111722D01*
X10522444Y-12111722D02*
X10531967Y-12102198D01*
X10531967Y-12102198D02*
X10551015Y-12092674D01*
X10551015Y-12092674D02*
X10598634Y-12092674D01*
X10598634Y-12092674D02*
X10617682Y-12102198D01*
X10617682Y-12102198D02*
X10627205Y-12111722D01*
X10627205Y-12111722D02*
X10636729Y-12130769D01*
X10636729Y-12130769D02*
X10636729Y-12178388D01*
X10636729Y-12178388D02*
X10627205Y-12197436D01*
X10627205Y-12197436D02*
X10617682Y-12206960D01*
X10617682Y-12206960D02*
X10598634Y-12216484D01*
X10598634Y-12216484D02*
X10551015Y-12216484D01*
X10551015Y-12216484D02*
X10531967Y-12206960D01*
X10531967Y-12206960D02*
X10522444Y-12197436D01*
X10760539Y-12016484D02*
X10779586Y-12016484D01*
X10779586Y-12016484D02*
X10798634Y-12026008D01*
X10798634Y-12026008D02*
X10808158Y-12035531D01*
X10808158Y-12035531D02*
X10817682Y-12054579D01*
X10817682Y-12054579D02*
X10827205Y-12092674D01*
X10827205Y-12092674D02*
X10827205Y-12140293D01*
X10827205Y-12140293D02*
X10817682Y-12178388D01*
X10817682Y-12178388D02*
X10808158Y-12197436D01*
X10808158Y-12197436D02*
X10798634Y-12206960D01*
X10798634Y-12206960D02*
X10779586Y-12216484D01*
X10779586Y-12216484D02*
X10760539Y-12216484D01*
X10760539Y-12216484D02*
X10741491Y-12206960D01*
X10741491Y-12206960D02*
X10731967Y-12197436D01*
X10731967Y-12197436D02*
X10722444Y-12178388D01*
X10722444Y-12178388D02*
X10712920Y-12140293D01*
X10712920Y-12140293D02*
X10712920Y-12092674D01*
X10712920Y-12092674D02*
X10722444Y-12054579D01*
X10722444Y-12054579D02*
X10731967Y-12035531D01*
X10731967Y-12035531D02*
X10741491Y-12026008D01*
X10741491Y-12026008D02*
X10760539Y-12016484D01*
X10912920Y-12216484D02*
X10912920Y-12083150D01*
X10912920Y-12102198D02*
X10922444Y-12092674D01*
X10922444Y-12092674D02*
X10941491Y-12083150D01*
X10941491Y-12083150D02*
X10970063Y-12083150D01*
X10970063Y-12083150D02*
X10989110Y-12092674D01*
X10989110Y-12092674D02*
X10998634Y-12111722D01*
X10998634Y-12111722D02*
X10998634Y-12216484D01*
X10998634Y-12111722D02*
X11008158Y-12092674D01*
X11008158Y-12092674D02*
X11027205Y-12083150D01*
X11027205Y-12083150D02*
X11055777Y-12083150D01*
X11055777Y-12083150D02*
X11074825Y-12092674D01*
X11074825Y-12092674D02*
X11084348Y-12111722D01*
X11084348Y-12111722D02*
X11084348Y-12216484D01*
X11179586Y-12216484D02*
X11179586Y-12083150D01*
X11179586Y-12102198D02*
X11189110Y-12092674D01*
X11189110Y-12092674D02*
X11208158Y-12083150D01*
X11208158Y-12083150D02*
X11236729Y-12083150D01*
X11236729Y-12083150D02*
X11255777Y-12092674D01*
X11255777Y-12092674D02*
X11265301Y-12111722D01*
X11265301Y-12111722D02*
X11265301Y-12216484D01*
X11265301Y-12111722D02*
X11274824Y-12092674D01*
X11274824Y-12092674D02*
X11293872Y-12083150D01*
X11293872Y-12083150D02*
X11322443Y-12083150D01*
X11322443Y-12083150D02*
X11341491Y-12092674D01*
X11341491Y-12092674D02*
X11351015Y-12111722D01*
X11351015Y-12111722D02*
X11351015Y-12216484D01*
X11741491Y-12006960D02*
X11570063Y-12264103D01*
X11998634Y-12016484D02*
X12017682Y-12016484D01*
X12017682Y-12016484D02*
X12036729Y-12026008D01*
X12036729Y-12026008D02*
X12046253Y-12035531D01*
X12046253Y-12035531D02*
X12055777Y-12054579D01*
X12055777Y-12054579D02*
X12065301Y-12092674D01*
X12065301Y-12092674D02*
X12065301Y-12140293D01*
X12065301Y-12140293D02*
X12055777Y-12178388D01*
X12055777Y-12178388D02*
X12046253Y-12197436D01*
X12046253Y-12197436D02*
X12036729Y-12206960D01*
X12036729Y-12206960D02*
X12017682Y-12216484D01*
X12017682Y-12216484D02*
X11998634Y-12216484D01*
X11998634Y-12216484D02*
X11979586Y-12206960D01*
X11979586Y-12206960D02*
X11970063Y-12197436D01*
X11970063Y-12197436D02*
X11960539Y-12178388D01*
X11960539Y-12178388D02*
X11951015Y-12140293D01*
X11951015Y-12140293D02*
X11951015Y-12092674D01*
X11951015Y-12092674D02*
X11960539Y-12054579D01*
X11960539Y-12054579D02*
X11970063Y-12035531D01*
X11970063Y-12035531D02*
X11979586Y-12026008D01*
X11979586Y-12026008D02*
X11998634Y-12016484D01*
X12151015Y-12197436D02*
X12160539Y-12206960D01*
X12160539Y-12206960D02*
X12151015Y-12216484D01*
X12151015Y-12216484D02*
X12141491Y-12206960D01*
X12141491Y-12206960D02*
X12151015Y-12197436D01*
X12151015Y-12197436D02*
X12151015Y-12216484D01*
X12284348Y-12016484D02*
X12303396Y-12016484D01*
X12303396Y-12016484D02*
X12322444Y-12026008D01*
X12322444Y-12026008D02*
X12331967Y-12035531D01*
X12331967Y-12035531D02*
X12341491Y-12054579D01*
X12341491Y-12054579D02*
X12351015Y-12092674D01*
X12351015Y-12092674D02*
X12351015Y-12140293D01*
X12351015Y-12140293D02*
X12341491Y-12178388D01*
X12341491Y-12178388D02*
X12331967Y-12197436D01*
X12331967Y-12197436D02*
X12322444Y-12206960D01*
X12322444Y-12206960D02*
X12303396Y-12216484D01*
X12303396Y-12216484D02*
X12284348Y-12216484D01*
X12284348Y-12216484D02*
X12265301Y-12206960D01*
X12265301Y-12206960D02*
X12255777Y-12197436D01*
X12255777Y-12197436D02*
X12246253Y-12178388D01*
X12246253Y-12178388D02*
X12236729Y-12140293D01*
X12236729Y-12140293D02*
X12236729Y-12092674D01*
X12236729Y-12092674D02*
X12246253Y-12054579D01*
X12246253Y-12054579D02*
X12255777Y-12035531D01*
X12255777Y-12035531D02*
X12265301Y-12026008D01*
X12265301Y-12026008D02*
X12284348Y-12016484D01*
X12522444Y-12083150D02*
X12522444Y-12216484D01*
X12474825Y-12006960D02*
X12427206Y-12149817D01*
X12427206Y-12149817D02*
X12551015Y-12149817D01*
X12731967Y-12216484D02*
X12617682Y-12216484D01*
X12674825Y-12216484D02*
X12674825Y-12016484D01*
X12674825Y-12016484D02*
X12655777Y-12045055D01*
X12655777Y-12045055D02*
X12636729Y-12064103D01*
X12636729Y-12064103D02*
X12617682Y-12073627D01*
X12798634Y-12016484D02*
X12922444Y-12016484D01*
X12922444Y-12016484D02*
X12855777Y-12092674D01*
X12855777Y-12092674D02*
X12884348Y-12092674D01*
X12884348Y-12092674D02*
X12903396Y-12102198D01*
X12903396Y-12102198D02*
X12912920Y-12111722D01*
X12912920Y-12111722D02*
X12922444Y-12130769D01*
X12922444Y-12130769D02*
X12922444Y-12178388D01*
X12922444Y-12178388D02*
X12912920Y-12197436D01*
X12912920Y-12197436D02*
X12903396Y-12206960D01*
X12903396Y-12206960D02*
X12884348Y-12216484D01*
X12884348Y-12216484D02*
X12827206Y-12216484D01*
X12827206Y-12216484D02*
X12808158Y-12206960D01*
X12808158Y-12206960D02*
X12798634Y-12197436D01*
X12998634Y-12016484D02*
X12998634Y-12054579D01*
X13074825Y-12016484D02*
X13074825Y-12054579D01*
X13370063Y-12292674D02*
X13360539Y-12283150D01*
X13360539Y-12283150D02*
X13341491Y-12254579D01*
X13341491Y-12254579D02*
X13331968Y-12235531D01*
X13331968Y-12235531D02*
X13322444Y-12206960D01*
X13322444Y-12206960D02*
X13312920Y-12159341D01*
X13312920Y-12159341D02*
X13312920Y-12121246D01*
X13312920Y-12121246D02*
X13322444Y-12073627D01*
X13322444Y-12073627D02*
X13331968Y-12045055D01*
X13331968Y-12045055D02*
X13341491Y-12026008D01*
X13341491Y-12026008D02*
X13360539Y-11997436D01*
X13360539Y-11997436D02*
X13370063Y-11987912D01*
X13551015Y-12216484D02*
X13436729Y-12216484D01*
X13493872Y-12216484D02*
X13493872Y-12016484D01*
X13493872Y-12016484D02*
X13474825Y-12045055D01*
X13474825Y-12045055D02*
X13455777Y-12064103D01*
X13455777Y-12064103D02*
X13436729Y-12073627D01*
X13789110Y-12216484D02*
X13789110Y-12016484D01*
X13874825Y-12216484D02*
X13874825Y-12111722D01*
X13874825Y-12111722D02*
X13865301Y-12092674D01*
X13865301Y-12092674D02*
X13846253Y-12083150D01*
X13846253Y-12083150D02*
X13817682Y-12083150D01*
X13817682Y-12083150D02*
X13798634Y-12092674D01*
X13798634Y-12092674D02*
X13789110Y-12102198D01*
X13998634Y-12216484D02*
X13979587Y-12206960D01*
X13979587Y-12206960D02*
X13970063Y-12197436D01*
X13970063Y-12197436D02*
X13960539Y-12178388D01*
X13960539Y-12178388D02*
X13960539Y-12121246D01*
X13960539Y-12121246D02*
X13970063Y-12102198D01*
X13970063Y-12102198D02*
X13979587Y-12092674D01*
X13979587Y-12092674D02*
X13998634Y-12083150D01*
X13998634Y-12083150D02*
X14027206Y-12083150D01*
X14027206Y-12083150D02*
X14046253Y-12092674D01*
X14046253Y-12092674D02*
X14055777Y-12102198D01*
X14055777Y-12102198D02*
X14065301Y-12121246D01*
X14065301Y-12121246D02*
X14065301Y-12178388D01*
X14065301Y-12178388D02*
X14055777Y-12197436D01*
X14055777Y-12197436D02*
X14046253Y-12206960D01*
X14046253Y-12206960D02*
X14027206Y-12216484D01*
X14027206Y-12216484D02*
X13998634Y-12216484D01*
X14179587Y-12216484D02*
X14160539Y-12206960D01*
X14160539Y-12206960D02*
X14151015Y-12187912D01*
X14151015Y-12187912D02*
X14151015Y-12016484D01*
X14331968Y-12206960D02*
X14312920Y-12216484D01*
X14312920Y-12216484D02*
X14274825Y-12216484D01*
X14274825Y-12216484D02*
X14255777Y-12206960D01*
X14255777Y-12206960D02*
X14246253Y-12187912D01*
X14246253Y-12187912D02*
X14246253Y-12111722D01*
X14246253Y-12111722D02*
X14255777Y-12092674D01*
X14255777Y-12092674D02*
X14274825Y-12083150D01*
X14274825Y-12083150D02*
X14312920Y-12083150D01*
X14312920Y-12083150D02*
X14331968Y-12092674D01*
X14331968Y-12092674D02*
X14341491Y-12111722D01*
X14341491Y-12111722D02*
X14341491Y-12130769D01*
X14341491Y-12130769D02*
X14246253Y-12149817D01*
X14408158Y-12292674D02*
X14417682Y-12283150D01*
X14417682Y-12283150D02*
X14436730Y-12254579D01*
X14436730Y-12254579D02*
X14446253Y-12235531D01*
X14446253Y-12235531D02*
X14455777Y-12206960D01*
X14455777Y-12206960D02*
X14465301Y-12159341D01*
X14465301Y-12159341D02*
X14465301Y-12121246D01*
X14465301Y-12121246D02*
X14455777Y-12073627D01*
X14455777Y-12073627D02*
X14446253Y-12045055D01*
X14446253Y-12045055D02*
X14436730Y-12026008D01*
X14436730Y-12026008D02*
X14417682Y-11997436D01*
X14417682Y-11997436D02*
X14408158Y-11987912D01*
X14770063Y-12292674D02*
X14760539Y-12283150D01*
X14760539Y-12283150D02*
X14741491Y-12254579D01*
X14741491Y-12254579D02*
X14731968Y-12235531D01*
X14731968Y-12235531D02*
X14722444Y-12206960D01*
X14722444Y-12206960D02*
X14712920Y-12159341D01*
X14712920Y-12159341D02*
X14712920Y-12121246D01*
X14712920Y-12121246D02*
X14722444Y-12073627D01*
X14722444Y-12073627D02*
X14731968Y-12045055D01*
X14731968Y-12045055D02*
X14741491Y-12026008D01*
X14741491Y-12026008D02*
X14760539Y-11997436D01*
X14760539Y-11997436D02*
X14770063Y-11987912D01*
X14846253Y-12083150D02*
X14846253Y-12216484D01*
X14846253Y-12102198D02*
X14855777Y-12092674D01*
X14855777Y-12092674D02*
X14874825Y-12083150D01*
X14874825Y-12083150D02*
X14903396Y-12083150D01*
X14903396Y-12083150D02*
X14922444Y-12092674D01*
X14922444Y-12092674D02*
X14931968Y-12111722D01*
X14931968Y-12111722D02*
X14931968Y-12216484D01*
X15055777Y-12216484D02*
X15036730Y-12206960D01*
X15036730Y-12206960D02*
X15027206Y-12197436D01*
X15027206Y-12197436D02*
X15017682Y-12178388D01*
X15017682Y-12178388D02*
X15017682Y-12121246D01*
X15017682Y-12121246D02*
X15027206Y-12102198D01*
X15027206Y-12102198D02*
X15036730Y-12092674D01*
X15036730Y-12092674D02*
X15055777Y-12083150D01*
X15055777Y-12083150D02*
X15084349Y-12083150D01*
X15084349Y-12083150D02*
X15103396Y-12092674D01*
X15103396Y-12092674D02*
X15112920Y-12102198D01*
X15112920Y-12102198D02*
X15122444Y-12121246D01*
X15122444Y-12121246D02*
X15122444Y-12178388D01*
X15122444Y-12178388D02*
X15112920Y-12197436D01*
X15112920Y-12197436D02*
X15103396Y-12206960D01*
X15103396Y-12206960D02*
X15084349Y-12216484D01*
X15084349Y-12216484D02*
X15055777Y-12216484D01*
X15179587Y-12083150D02*
X15255777Y-12083150D01*
X15208158Y-12016484D02*
X15208158Y-12187912D01*
X15208158Y-12187912D02*
X15217682Y-12206960D01*
X15217682Y-12206960D02*
X15236730Y-12216484D01*
X15236730Y-12216484D02*
X15255777Y-12216484D01*
X15474825Y-12083150D02*
X15474825Y-12283150D01*
X15474825Y-12092674D02*
X15493872Y-12083150D01*
X15493872Y-12083150D02*
X15531968Y-12083150D01*
X15531968Y-12083150D02*
X15551015Y-12092674D01*
X15551015Y-12092674D02*
X15560539Y-12102198D01*
X15560539Y-12102198D02*
X15570063Y-12121246D01*
X15570063Y-12121246D02*
X15570063Y-12178388D01*
X15570063Y-12178388D02*
X15560539Y-12197436D01*
X15560539Y-12197436D02*
X15551015Y-12206960D01*
X15551015Y-12206960D02*
X15531968Y-12216484D01*
X15531968Y-12216484D02*
X15493872Y-12216484D01*
X15493872Y-12216484D02*
X15474825Y-12206960D01*
X15684349Y-12216484D02*
X15665301Y-12206960D01*
X15665301Y-12206960D02*
X15655777Y-12187912D01*
X15655777Y-12187912D02*
X15655777Y-12016484D01*
X15846253Y-12216484D02*
X15846253Y-12111722D01*
X15846253Y-12111722D02*
X15836730Y-12092674D01*
X15836730Y-12092674D02*
X15817682Y-12083150D01*
X15817682Y-12083150D02*
X15779587Y-12083150D01*
X15779587Y-12083150D02*
X15760539Y-12092674D01*
X15846253Y-12206960D02*
X15827206Y-12216484D01*
X15827206Y-12216484D02*
X15779587Y-12216484D01*
X15779587Y-12216484D02*
X15760539Y-12206960D01*
X15760539Y-12206960D02*
X15751015Y-12187912D01*
X15751015Y-12187912D02*
X15751015Y-12168865D01*
X15751015Y-12168865D02*
X15760539Y-12149817D01*
X15760539Y-12149817D02*
X15779587Y-12140293D01*
X15779587Y-12140293D02*
X15827206Y-12140293D01*
X15827206Y-12140293D02*
X15846253Y-12130769D01*
X15912920Y-12083150D02*
X15989111Y-12083150D01*
X15941492Y-12016484D02*
X15941492Y-12187912D01*
X15941492Y-12187912D02*
X15951015Y-12206960D01*
X15951015Y-12206960D02*
X15970063Y-12216484D01*
X15970063Y-12216484D02*
X15989111Y-12216484D01*
X16131968Y-12206960D02*
X16112920Y-12216484D01*
X16112920Y-12216484D02*
X16074825Y-12216484D01*
X16074825Y-12216484D02*
X16055777Y-12206960D01*
X16055777Y-12206960D02*
X16046253Y-12187912D01*
X16046253Y-12187912D02*
X16046253Y-12111722D01*
X16046253Y-12111722D02*
X16055777Y-12092674D01*
X16055777Y-12092674D02*
X16074825Y-12083150D01*
X16074825Y-12083150D02*
X16112920Y-12083150D01*
X16112920Y-12083150D02*
X16131968Y-12092674D01*
X16131968Y-12092674D02*
X16141492Y-12111722D01*
X16141492Y-12111722D02*
X16141492Y-12130769D01*
X16141492Y-12130769D02*
X16046253Y-12149817D01*
X16312920Y-12216484D02*
X16312920Y-12016484D01*
X16312920Y-12206960D02*
X16293873Y-12216484D01*
X16293873Y-12216484D02*
X16255777Y-12216484D01*
X16255777Y-12216484D02*
X16236730Y-12206960D01*
X16236730Y-12206960D02*
X16227206Y-12197436D01*
X16227206Y-12197436D02*
X16217682Y-12178388D01*
X16217682Y-12178388D02*
X16217682Y-12121246D01*
X16217682Y-12121246D02*
X16227206Y-12102198D01*
X16227206Y-12102198D02*
X16236730Y-12092674D01*
X16236730Y-12092674D02*
X16255777Y-12083150D01*
X16255777Y-12083150D02*
X16293873Y-12083150D01*
X16293873Y-12083150D02*
X16312920Y-12092674D01*
X16389111Y-12292674D02*
X16398634Y-12283150D01*
X16398634Y-12283150D02*
X16417682Y-12254579D01*
X16417682Y-12254579D02*
X16427206Y-12235531D01*
X16427206Y-12235531D02*
X16436730Y-12206960D01*
X16436730Y-12206960D02*
X16446253Y-12159341D01*
X16446253Y-12159341D02*
X16446253Y-12121246D01*
X16446253Y-12121246D02*
X16436730Y-12073627D01*
X16436730Y-12073627D02*
X16427206Y-12045055D01*
X16427206Y-12045055D02*
X16417682Y-12026008D01*
X16417682Y-12026008D02*
X16398634Y-11997436D01*
X16398634Y-11997436D02*
X16389111Y-11987912D01*
D13*
X9795000Y-12389000D02*
G75*
G03*
X9795000Y-12389000I-60000J0D01*
G01*
D11*
X10160539Y-12480484D02*
X10046253Y-12480484D01*
X10103396Y-12480484D02*
X10103396Y-12280484D01*
X10103396Y-12280484D02*
X10084348Y-12309055D01*
X10084348Y-12309055D02*
X10065301Y-12328103D01*
X10065301Y-12328103D02*
X10046253Y-12337627D01*
X10246253Y-12461436D02*
X10255777Y-12470960D01*
X10255777Y-12470960D02*
X10246253Y-12480484D01*
X10246253Y-12480484D02*
X10236729Y-12470960D01*
X10236729Y-12470960D02*
X10246253Y-12461436D01*
X10246253Y-12461436D02*
X10246253Y-12480484D01*
X10331967Y-12299531D02*
X10341491Y-12290008D01*
X10341491Y-12290008D02*
X10360539Y-12280484D01*
X10360539Y-12280484D02*
X10408158Y-12280484D01*
X10408158Y-12280484D02*
X10427205Y-12290008D01*
X10427205Y-12290008D02*
X10436729Y-12299531D01*
X10436729Y-12299531D02*
X10446253Y-12318579D01*
X10446253Y-12318579D02*
X10446253Y-12337627D01*
X10446253Y-12337627D02*
X10436729Y-12366198D01*
X10436729Y-12366198D02*
X10322444Y-12480484D01*
X10322444Y-12480484D02*
X10446253Y-12480484D01*
X10570063Y-12280484D02*
X10589110Y-12280484D01*
X10589110Y-12280484D02*
X10608158Y-12290008D01*
X10608158Y-12290008D02*
X10617682Y-12299531D01*
X10617682Y-12299531D02*
X10627205Y-12318579D01*
X10627205Y-12318579D02*
X10636729Y-12356674D01*
X10636729Y-12356674D02*
X10636729Y-12404293D01*
X10636729Y-12404293D02*
X10627205Y-12442388D01*
X10627205Y-12442388D02*
X10617682Y-12461436D01*
X10617682Y-12461436D02*
X10608158Y-12470960D01*
X10608158Y-12470960D02*
X10589110Y-12480484D01*
X10589110Y-12480484D02*
X10570063Y-12480484D01*
X10570063Y-12480484D02*
X10551015Y-12470960D01*
X10551015Y-12470960D02*
X10541491Y-12461436D01*
X10541491Y-12461436D02*
X10531967Y-12442388D01*
X10531967Y-12442388D02*
X10522444Y-12404293D01*
X10522444Y-12404293D02*
X10522444Y-12356674D01*
X10522444Y-12356674D02*
X10531967Y-12318579D01*
X10531967Y-12318579D02*
X10541491Y-12299531D01*
X10541491Y-12299531D02*
X10551015Y-12290008D01*
X10551015Y-12290008D02*
X10570063Y-12280484D01*
X10760539Y-12280484D02*
X10779586Y-12280484D01*
X10779586Y-12280484D02*
X10798634Y-12290008D01*
X10798634Y-12290008D02*
X10808158Y-12299531D01*
X10808158Y-12299531D02*
X10817682Y-12318579D01*
X10817682Y-12318579D02*
X10827205Y-12356674D01*
X10827205Y-12356674D02*
X10827205Y-12404293D01*
X10827205Y-12404293D02*
X10817682Y-12442388D01*
X10817682Y-12442388D02*
X10808158Y-12461436D01*
X10808158Y-12461436D02*
X10798634Y-12470960D01*
X10798634Y-12470960D02*
X10779586Y-12480484D01*
X10779586Y-12480484D02*
X10760539Y-12480484D01*
X10760539Y-12480484D02*
X10741491Y-12470960D01*
X10741491Y-12470960D02*
X10731967Y-12461436D01*
X10731967Y-12461436D02*
X10722444Y-12442388D01*
X10722444Y-12442388D02*
X10712920Y-12404293D01*
X10712920Y-12404293D02*
X10712920Y-12356674D01*
X10712920Y-12356674D02*
X10722444Y-12318579D01*
X10722444Y-12318579D02*
X10731967Y-12299531D01*
X10731967Y-12299531D02*
X10741491Y-12290008D01*
X10741491Y-12290008D02*
X10760539Y-12280484D01*
X10912920Y-12480484D02*
X10912920Y-12347150D01*
X10912920Y-12366198D02*
X10922444Y-12356674D01*
X10922444Y-12356674D02*
X10941491Y-12347150D01*
X10941491Y-12347150D02*
X10970063Y-12347150D01*
X10970063Y-12347150D02*
X10989110Y-12356674D01*
X10989110Y-12356674D02*
X10998634Y-12375722D01*
X10998634Y-12375722D02*
X10998634Y-12480484D01*
X10998634Y-12375722D02*
X11008158Y-12356674D01*
X11008158Y-12356674D02*
X11027205Y-12347150D01*
X11027205Y-12347150D02*
X11055777Y-12347150D01*
X11055777Y-12347150D02*
X11074825Y-12356674D01*
X11074825Y-12356674D02*
X11084348Y-12375722D01*
X11084348Y-12375722D02*
X11084348Y-12480484D01*
X11179586Y-12480484D02*
X11179586Y-12347150D01*
X11179586Y-12366198D02*
X11189110Y-12356674D01*
X11189110Y-12356674D02*
X11208158Y-12347150D01*
X11208158Y-12347150D02*
X11236729Y-12347150D01*
X11236729Y-12347150D02*
X11255777Y-12356674D01*
X11255777Y-12356674D02*
X11265301Y-12375722D01*
X11265301Y-12375722D02*
X11265301Y-12480484D01*
X11265301Y-12375722D02*
X11274824Y-12356674D01*
X11274824Y-12356674D02*
X11293872Y-12347150D01*
X11293872Y-12347150D02*
X11322443Y-12347150D01*
X11322443Y-12347150D02*
X11341491Y-12356674D01*
X11341491Y-12356674D02*
X11351015Y-12375722D01*
X11351015Y-12375722D02*
X11351015Y-12480484D01*
X11741491Y-12270960D02*
X11570063Y-12528103D01*
X11998634Y-12280484D02*
X12017682Y-12280484D01*
X12017682Y-12280484D02*
X12036729Y-12290008D01*
X12036729Y-12290008D02*
X12046253Y-12299531D01*
X12046253Y-12299531D02*
X12055777Y-12318579D01*
X12055777Y-12318579D02*
X12065301Y-12356674D01*
X12065301Y-12356674D02*
X12065301Y-12404293D01*
X12065301Y-12404293D02*
X12055777Y-12442388D01*
X12055777Y-12442388D02*
X12046253Y-12461436D01*
X12046253Y-12461436D02*
X12036729Y-12470960D01*
X12036729Y-12470960D02*
X12017682Y-12480484D01*
X12017682Y-12480484D02*
X11998634Y-12480484D01*
X11998634Y-12480484D02*
X11979586Y-12470960D01*
X11979586Y-12470960D02*
X11970063Y-12461436D01*
X11970063Y-12461436D02*
X11960539Y-12442388D01*
X11960539Y-12442388D02*
X11951015Y-12404293D01*
X11951015Y-12404293D02*
X11951015Y-12356674D01*
X11951015Y-12356674D02*
X11960539Y-12318579D01*
X11960539Y-12318579D02*
X11970063Y-12299531D01*
X11970063Y-12299531D02*
X11979586Y-12290008D01*
X11979586Y-12290008D02*
X11998634Y-12280484D01*
X12151015Y-12461436D02*
X12160539Y-12470960D01*
X12160539Y-12470960D02*
X12151015Y-12480484D01*
X12151015Y-12480484D02*
X12141491Y-12470960D01*
X12141491Y-12470960D02*
X12151015Y-12461436D01*
X12151015Y-12461436D02*
X12151015Y-12480484D01*
X12284348Y-12280484D02*
X12303396Y-12280484D01*
X12303396Y-12280484D02*
X12322444Y-12290008D01*
X12322444Y-12290008D02*
X12331967Y-12299531D01*
X12331967Y-12299531D02*
X12341491Y-12318579D01*
X12341491Y-12318579D02*
X12351015Y-12356674D01*
X12351015Y-12356674D02*
X12351015Y-12404293D01*
X12351015Y-12404293D02*
X12341491Y-12442388D01*
X12341491Y-12442388D02*
X12331967Y-12461436D01*
X12331967Y-12461436D02*
X12322444Y-12470960D01*
X12322444Y-12470960D02*
X12303396Y-12480484D01*
X12303396Y-12480484D02*
X12284348Y-12480484D01*
X12284348Y-12480484D02*
X12265301Y-12470960D01*
X12265301Y-12470960D02*
X12255777Y-12461436D01*
X12255777Y-12461436D02*
X12246253Y-12442388D01*
X12246253Y-12442388D02*
X12236729Y-12404293D01*
X12236729Y-12404293D02*
X12236729Y-12356674D01*
X12236729Y-12356674D02*
X12246253Y-12318579D01*
X12246253Y-12318579D02*
X12255777Y-12299531D01*
X12255777Y-12299531D02*
X12265301Y-12290008D01*
X12265301Y-12290008D02*
X12284348Y-12280484D01*
X12522444Y-12347150D02*
X12522444Y-12480484D01*
X12474825Y-12270960D02*
X12427206Y-12413817D01*
X12427206Y-12413817D02*
X12551015Y-12413817D01*
X12608158Y-12280484D02*
X12741491Y-12280484D01*
X12741491Y-12280484D02*
X12655777Y-12480484D01*
X12808158Y-12299531D02*
X12817682Y-12290008D01*
X12817682Y-12290008D02*
X12836729Y-12280484D01*
X12836729Y-12280484D02*
X12884348Y-12280484D01*
X12884348Y-12280484D02*
X12903396Y-12290008D01*
X12903396Y-12290008D02*
X12912920Y-12299531D01*
X12912920Y-12299531D02*
X12922444Y-12318579D01*
X12922444Y-12318579D02*
X12922444Y-12337627D01*
X12922444Y-12337627D02*
X12912920Y-12366198D01*
X12912920Y-12366198D02*
X12798634Y-12480484D01*
X12798634Y-12480484D02*
X12922444Y-12480484D01*
X12998634Y-12280484D02*
X12998634Y-12318579D01*
X13074825Y-12280484D02*
X13074825Y-12318579D01*
X13370063Y-12556674D02*
X13360539Y-12547150D01*
X13360539Y-12547150D02*
X13341491Y-12518579D01*
X13341491Y-12518579D02*
X13331968Y-12499531D01*
X13331968Y-12499531D02*
X13322444Y-12470960D01*
X13322444Y-12470960D02*
X13312920Y-12423341D01*
X13312920Y-12423341D02*
X13312920Y-12385246D01*
X13312920Y-12385246D02*
X13322444Y-12337627D01*
X13322444Y-12337627D02*
X13331968Y-12309055D01*
X13331968Y-12309055D02*
X13341491Y-12290008D01*
X13341491Y-12290008D02*
X13360539Y-12261436D01*
X13360539Y-12261436D02*
X13370063Y-12251912D01*
X13436729Y-12299531D02*
X13446253Y-12290008D01*
X13446253Y-12290008D02*
X13465301Y-12280484D01*
X13465301Y-12280484D02*
X13512920Y-12280484D01*
X13512920Y-12280484D02*
X13531968Y-12290008D01*
X13531968Y-12290008D02*
X13541491Y-12299531D01*
X13541491Y-12299531D02*
X13551015Y-12318579D01*
X13551015Y-12318579D02*
X13551015Y-12337627D01*
X13551015Y-12337627D02*
X13541491Y-12366198D01*
X13541491Y-12366198D02*
X13427206Y-12480484D01*
X13427206Y-12480484D02*
X13551015Y-12480484D01*
X13789110Y-12480484D02*
X13789110Y-12280484D01*
X13874825Y-12480484D02*
X13874825Y-12375722D01*
X13874825Y-12375722D02*
X13865301Y-12356674D01*
X13865301Y-12356674D02*
X13846253Y-12347150D01*
X13846253Y-12347150D02*
X13817682Y-12347150D01*
X13817682Y-12347150D02*
X13798634Y-12356674D01*
X13798634Y-12356674D02*
X13789110Y-12366198D01*
X13998634Y-12480484D02*
X13979587Y-12470960D01*
X13979587Y-12470960D02*
X13970063Y-12461436D01*
X13970063Y-12461436D02*
X13960539Y-12442388D01*
X13960539Y-12442388D02*
X13960539Y-12385246D01*
X13960539Y-12385246D02*
X13970063Y-12366198D01*
X13970063Y-12366198D02*
X13979587Y-12356674D01*
X13979587Y-12356674D02*
X13998634Y-12347150D01*
X13998634Y-12347150D02*
X14027206Y-12347150D01*
X14027206Y-12347150D02*
X14046253Y-12356674D01*
X14046253Y-12356674D02*
X14055777Y-12366198D01*
X14055777Y-12366198D02*
X14065301Y-12385246D01*
X14065301Y-12385246D02*
X14065301Y-12442388D01*
X14065301Y-12442388D02*
X14055777Y-12461436D01*
X14055777Y-12461436D02*
X14046253Y-12470960D01*
X14046253Y-12470960D02*
X14027206Y-12480484D01*
X14027206Y-12480484D02*
X13998634Y-12480484D01*
X14179587Y-12480484D02*
X14160539Y-12470960D01*
X14160539Y-12470960D02*
X14151015Y-12451912D01*
X14151015Y-12451912D02*
X14151015Y-12280484D01*
X14331968Y-12470960D02*
X14312920Y-12480484D01*
X14312920Y-12480484D02*
X14274825Y-12480484D01*
X14274825Y-12480484D02*
X14255777Y-12470960D01*
X14255777Y-12470960D02*
X14246253Y-12451912D01*
X14246253Y-12451912D02*
X14246253Y-12375722D01*
X14246253Y-12375722D02*
X14255777Y-12356674D01*
X14255777Y-12356674D02*
X14274825Y-12347150D01*
X14274825Y-12347150D02*
X14312920Y-12347150D01*
X14312920Y-12347150D02*
X14331968Y-12356674D01*
X14331968Y-12356674D02*
X14341491Y-12375722D01*
X14341491Y-12375722D02*
X14341491Y-12394769D01*
X14341491Y-12394769D02*
X14246253Y-12413817D01*
X14417682Y-12470960D02*
X14436730Y-12480484D01*
X14436730Y-12480484D02*
X14474825Y-12480484D01*
X14474825Y-12480484D02*
X14493872Y-12470960D01*
X14493872Y-12470960D02*
X14503396Y-12451912D01*
X14503396Y-12451912D02*
X14503396Y-12442388D01*
X14503396Y-12442388D02*
X14493872Y-12423341D01*
X14493872Y-12423341D02*
X14474825Y-12413817D01*
X14474825Y-12413817D02*
X14446253Y-12413817D01*
X14446253Y-12413817D02*
X14427206Y-12404293D01*
X14427206Y-12404293D02*
X14417682Y-12385246D01*
X14417682Y-12385246D02*
X14417682Y-12375722D01*
X14417682Y-12375722D02*
X14427206Y-12356674D01*
X14427206Y-12356674D02*
X14446253Y-12347150D01*
X14446253Y-12347150D02*
X14474825Y-12347150D01*
X14474825Y-12347150D02*
X14493872Y-12356674D01*
X14570063Y-12556674D02*
X14579587Y-12547150D01*
X14579587Y-12547150D02*
X14598634Y-12518579D01*
X14598634Y-12518579D02*
X14608158Y-12499531D01*
X14608158Y-12499531D02*
X14617682Y-12470960D01*
X14617682Y-12470960D02*
X14627206Y-12423341D01*
X14627206Y-12423341D02*
X14627206Y-12385246D01*
X14627206Y-12385246D02*
X14617682Y-12337627D01*
X14617682Y-12337627D02*
X14608158Y-12309055D01*
X14608158Y-12309055D02*
X14598634Y-12290008D01*
X14598634Y-12290008D02*
X14579587Y-12261436D01*
X14579587Y-12261436D02*
X14570063Y-12251912D01*
X14931968Y-12556674D02*
X14922444Y-12547150D01*
X14922444Y-12547150D02*
X14903396Y-12518579D01*
X14903396Y-12518579D02*
X14893872Y-12499531D01*
X14893872Y-12499531D02*
X14884349Y-12470960D01*
X14884349Y-12470960D02*
X14874825Y-12423341D01*
X14874825Y-12423341D02*
X14874825Y-12385246D01*
X14874825Y-12385246D02*
X14884349Y-12337627D01*
X14884349Y-12337627D02*
X14893872Y-12309055D01*
X14893872Y-12309055D02*
X14903396Y-12290008D01*
X14903396Y-12290008D02*
X14922444Y-12261436D01*
X14922444Y-12261436D02*
X14931968Y-12251912D01*
X15008158Y-12347150D02*
X15008158Y-12480484D01*
X15008158Y-12366198D02*
X15017682Y-12356674D01*
X15017682Y-12356674D02*
X15036730Y-12347150D01*
X15036730Y-12347150D02*
X15065301Y-12347150D01*
X15065301Y-12347150D02*
X15084349Y-12356674D01*
X15084349Y-12356674D02*
X15093872Y-12375722D01*
X15093872Y-12375722D02*
X15093872Y-12480484D01*
X15217682Y-12480484D02*
X15198634Y-12470960D01*
X15198634Y-12470960D02*
X15189111Y-12461436D01*
X15189111Y-12461436D02*
X15179587Y-12442388D01*
X15179587Y-12442388D02*
X15179587Y-12385246D01*
X15179587Y-12385246D02*
X15189111Y-12366198D01*
X15189111Y-12366198D02*
X15198634Y-12356674D01*
X15198634Y-12356674D02*
X15217682Y-12347150D01*
X15217682Y-12347150D02*
X15246253Y-12347150D01*
X15246253Y-12347150D02*
X15265301Y-12356674D01*
X15265301Y-12356674D02*
X15274825Y-12366198D01*
X15274825Y-12366198D02*
X15284349Y-12385246D01*
X15284349Y-12385246D02*
X15284349Y-12442388D01*
X15284349Y-12442388D02*
X15274825Y-12461436D01*
X15274825Y-12461436D02*
X15265301Y-12470960D01*
X15265301Y-12470960D02*
X15246253Y-12480484D01*
X15246253Y-12480484D02*
X15217682Y-12480484D01*
X15341492Y-12347150D02*
X15417682Y-12347150D01*
X15370063Y-12280484D02*
X15370063Y-12451912D01*
X15370063Y-12451912D02*
X15379587Y-12470960D01*
X15379587Y-12470960D02*
X15398634Y-12480484D01*
X15398634Y-12480484D02*
X15417682Y-12480484D01*
X15636730Y-12347150D02*
X15636730Y-12547150D01*
X15636730Y-12356674D02*
X15655777Y-12347150D01*
X15655777Y-12347150D02*
X15693873Y-12347150D01*
X15693873Y-12347150D02*
X15712920Y-12356674D01*
X15712920Y-12356674D02*
X15722444Y-12366198D01*
X15722444Y-12366198D02*
X15731968Y-12385246D01*
X15731968Y-12385246D02*
X15731968Y-12442388D01*
X15731968Y-12442388D02*
X15722444Y-12461436D01*
X15722444Y-12461436D02*
X15712920Y-12470960D01*
X15712920Y-12470960D02*
X15693873Y-12480484D01*
X15693873Y-12480484D02*
X15655777Y-12480484D01*
X15655777Y-12480484D02*
X15636730Y-12470960D01*
X15846253Y-12480484D02*
X15827206Y-12470960D01*
X15827206Y-12470960D02*
X15817682Y-12451912D01*
X15817682Y-12451912D02*
X15817682Y-12280484D01*
X16008158Y-12480484D02*
X16008158Y-12375722D01*
X16008158Y-12375722D02*
X15998634Y-12356674D01*
X15998634Y-12356674D02*
X15979587Y-12347150D01*
X15979587Y-12347150D02*
X15941492Y-12347150D01*
X15941492Y-12347150D02*
X15922444Y-12356674D01*
X16008158Y-12470960D02*
X15989111Y-12480484D01*
X15989111Y-12480484D02*
X15941492Y-12480484D01*
X15941492Y-12480484D02*
X15922444Y-12470960D01*
X15922444Y-12470960D02*
X15912920Y-12451912D01*
X15912920Y-12451912D02*
X15912920Y-12432865D01*
X15912920Y-12432865D02*
X15922444Y-12413817D01*
X15922444Y-12413817D02*
X15941492Y-12404293D01*
X15941492Y-12404293D02*
X15989111Y-12404293D01*
X15989111Y-12404293D02*
X16008158Y-12394769D01*
X16074825Y-12347150D02*
X16151015Y-12347150D01*
X16103396Y-12280484D02*
X16103396Y-12451912D01*
X16103396Y-12451912D02*
X16112920Y-12470960D01*
X16112920Y-12470960D02*
X16131968Y-12480484D01*
X16131968Y-12480484D02*
X16151015Y-12480484D01*
X16293873Y-12470960D02*
X16274825Y-12480484D01*
X16274825Y-12480484D02*
X16236730Y-12480484D01*
X16236730Y-12480484D02*
X16217682Y-12470960D01*
X16217682Y-12470960D02*
X16208158Y-12451912D01*
X16208158Y-12451912D02*
X16208158Y-12375722D01*
X16208158Y-12375722D02*
X16217682Y-12356674D01*
X16217682Y-12356674D02*
X16236730Y-12347150D01*
X16236730Y-12347150D02*
X16274825Y-12347150D01*
X16274825Y-12347150D02*
X16293873Y-12356674D01*
X16293873Y-12356674D02*
X16303396Y-12375722D01*
X16303396Y-12375722D02*
X16303396Y-12394769D01*
X16303396Y-12394769D02*
X16208158Y-12413817D01*
X16474825Y-12480484D02*
X16474825Y-12280484D01*
X16474825Y-12470960D02*
X16455777Y-12480484D01*
X16455777Y-12480484D02*
X16417682Y-12480484D01*
X16417682Y-12480484D02*
X16398634Y-12470960D01*
X16398634Y-12470960D02*
X16389111Y-12461436D01*
X16389111Y-12461436D02*
X16379587Y-12442388D01*
X16379587Y-12442388D02*
X16379587Y-12385246D01*
X16379587Y-12385246D02*
X16389111Y-12366198D01*
X16389111Y-12366198D02*
X16398634Y-12356674D01*
X16398634Y-12356674D02*
X16417682Y-12347150D01*
X16417682Y-12347150D02*
X16455777Y-12347150D01*
X16455777Y-12347150D02*
X16474825Y-12356674D01*
X16551015Y-12556674D02*
X16560539Y-12547150D01*
X16560539Y-12547150D02*
X16579587Y-12518579D01*
X16579587Y-12518579D02*
X16589111Y-12499531D01*
X16589111Y-12499531D02*
X16598634Y-12470960D01*
X16598634Y-12470960D02*
X16608158Y-12423341D01*
X16608158Y-12423341D02*
X16608158Y-12385246D01*
X16608158Y-12385246D02*
X16598634Y-12337627D01*
X16598634Y-12337627D02*
X16589111Y-12309055D01*
X16589111Y-12309055D02*
X16579587Y-12290008D01*
X16579587Y-12290008D02*
X16560539Y-12261436D01*
X16560539Y-12261436D02*
X16551015Y-12251912D01*
M02*
