%TF.GenerationSoftware,KiCad,Pcbnew,7.0.7*%
%TF.CreationDate,2023-11-04T12:16:01+01:00*%
%TF.ProjectId,amoeba-ulp,616d6f65-6261-42d7-956c-702e6b696361,rev?*%
%TF.SameCoordinates,Original*%
%TF.FileFunction,Legend,Bot*%
%TF.FilePolarity,Positive*%
%FSLAX46Y46*%
G04 Gerber Fmt 4.6, Leading zero omitted, Abs format (unit mm)*
G04 Created by KiCad (PCBNEW 7.0.7) date 2023-11-04 12:16:01*
%MOMM*%
%LPD*%
G01*
G04 APERTURE LIST*
G04 Aperture macros list*
%AMRoundRect*
0 Rectangle with rounded corners*
0 $1 Rounding radius*
0 $2 $3 $4 $5 $6 $7 $8 $9 X,Y pos of 4 corners*
0 Add a 4 corners polygon primitive as box body*
4,1,4,$2,$3,$4,$5,$6,$7,$8,$9,$2,$3,0*
0 Add four circle primitives for the rounded corners*
1,1,$1+$1,$2,$3*
1,1,$1+$1,$4,$5*
1,1,$1+$1,$6,$7*
1,1,$1+$1,$8,$9*
0 Add four rect primitives between the rounded corners*
20,1,$1+$1,$2,$3,$4,$5,0*
20,1,$1+$1,$4,$5,$6,$7,0*
20,1,$1+$1,$6,$7,$8,$9,0*
20,1,$1+$1,$8,$9,$2,$3,0*%
G04 Aperture macros list end*
%ADD10C,0.150000*%
%ADD11C,0.120000*%
%ADD12RoundRect,0.250000X0.250000X0.750000X-0.250000X0.750000X-0.250000X-0.750000X0.250000X-0.750000X0*%
%ADD13RoundRect,0.250000X0.750000X-0.250000X0.750000X0.250000X-0.750000X0.250000X-0.750000X-0.250000X0*%
%ADD14C,1.200000*%
%ADD15C,1.050000*%
%ADD16RoundRect,0.112500X0.112500X-0.187500X0.112500X0.187500X-0.112500X0.187500X-0.112500X-0.187500X0*%
G04 APERTURE END LIST*
D10*
X105490476Y-113759580D02*
X105538095Y-113807200D01*
X105538095Y-113807200D02*
X105680952Y-113854819D01*
X105680952Y-113854819D02*
X105776190Y-113854819D01*
X105776190Y-113854819D02*
X105919047Y-113807200D01*
X105919047Y-113807200D02*
X106014285Y-113711961D01*
X106014285Y-113711961D02*
X106061904Y-113616723D01*
X106061904Y-113616723D02*
X106109523Y-113426247D01*
X106109523Y-113426247D02*
X106109523Y-113283390D01*
X106109523Y-113283390D02*
X106061904Y-113092914D01*
X106061904Y-113092914D02*
X106014285Y-112997676D01*
X106014285Y-112997676D02*
X105919047Y-112902438D01*
X105919047Y-112902438D02*
X105776190Y-112854819D01*
X105776190Y-112854819D02*
X105680952Y-112854819D01*
X105680952Y-112854819D02*
X105538095Y-112902438D01*
X105538095Y-112902438D02*
X105490476Y-112950057D01*
X99090476Y-105354819D02*
X99423809Y-104878628D01*
X99661904Y-105354819D02*
X99661904Y-104354819D01*
X99661904Y-104354819D02*
X99280952Y-104354819D01*
X99280952Y-104354819D02*
X99185714Y-104402438D01*
X99185714Y-104402438D02*
X99138095Y-104450057D01*
X99138095Y-104450057D02*
X99090476Y-104545295D01*
X99090476Y-104545295D02*
X99090476Y-104688152D01*
X99090476Y-104688152D02*
X99138095Y-104783390D01*
X99138095Y-104783390D02*
X99185714Y-104831009D01*
X99185714Y-104831009D02*
X99280952Y-104878628D01*
X99280952Y-104878628D02*
X99661904Y-104878628D01*
X105590476Y-99759580D02*
X105638095Y-99807200D01*
X105638095Y-99807200D02*
X105780952Y-99854819D01*
X105780952Y-99854819D02*
X105876190Y-99854819D01*
X105876190Y-99854819D02*
X106019047Y-99807200D01*
X106019047Y-99807200D02*
X106114285Y-99711961D01*
X106114285Y-99711961D02*
X106161904Y-99616723D01*
X106161904Y-99616723D02*
X106209523Y-99426247D01*
X106209523Y-99426247D02*
X106209523Y-99283390D01*
X106209523Y-99283390D02*
X106161904Y-99092914D01*
X106161904Y-99092914D02*
X106114285Y-98997676D01*
X106114285Y-98997676D02*
X106019047Y-98902438D01*
X106019047Y-98902438D02*
X105876190Y-98854819D01*
X105876190Y-98854819D02*
X105780952Y-98854819D01*
X105780952Y-98854819D02*
X105638095Y-98902438D01*
X105638095Y-98902438D02*
X105590476Y-98950057D01*
X114590476Y-105454819D02*
X114923809Y-104978628D01*
X115161904Y-105454819D02*
X115161904Y-104454819D01*
X115161904Y-104454819D02*
X114780952Y-104454819D01*
X114780952Y-104454819D02*
X114685714Y-104502438D01*
X114685714Y-104502438D02*
X114638095Y-104550057D01*
X114638095Y-104550057D02*
X114590476Y-104645295D01*
X114590476Y-104645295D02*
X114590476Y-104788152D01*
X114590476Y-104788152D02*
X114638095Y-104883390D01*
X114638095Y-104883390D02*
X114685714Y-104931009D01*
X114685714Y-104931009D02*
X114780952Y-104978628D01*
X114780952Y-104978628D02*
X115161904Y-104978628D01*
X111854819Y-100761905D02*
X110854819Y-100761905D01*
X110854819Y-100761905D02*
X110854819Y-101000000D01*
X110854819Y-101000000D02*
X110902438Y-101142857D01*
X110902438Y-101142857D02*
X110997676Y-101238095D01*
X110997676Y-101238095D02*
X111092914Y-101285714D01*
X111092914Y-101285714D02*
X111283390Y-101333333D01*
X111283390Y-101333333D02*
X111426247Y-101333333D01*
X111426247Y-101333333D02*
X111616723Y-101285714D01*
X111616723Y-101285714D02*
X111711961Y-101238095D01*
X111711961Y-101238095D02*
X111807200Y-101142857D01*
X111807200Y-101142857D02*
X111854819Y-101000000D01*
X111854819Y-101000000D02*
X111854819Y-100761905D01*
X111854819Y-102285714D02*
X111854819Y-101714286D01*
X111854819Y-102000000D02*
X110854819Y-102000000D01*
X110854819Y-102000000D02*
X110997676Y-101904762D01*
X110997676Y-101904762D02*
X111092914Y-101809524D01*
X111092914Y-101809524D02*
X111140533Y-101714286D01*
D11*
%TO.C,D1*%
X111350000Y-105110000D02*
X111350000Y-102450000D01*
X111350000Y-105110000D02*
X109650000Y-105110000D01*
X109650000Y-105110000D02*
X109650000Y-102450000D01*
%TD*%
%LPC*%
D12*
%TO.C,C*%
X107100000Y-113400000D03*
%TD*%
D13*
%TO.C,R*%
X99400000Y-106400000D03*
%TD*%
D12*
%TO.C,C*%
X107100000Y-99400000D03*
%TD*%
D13*
%TO.C,R*%
X114800000Y-106400000D03*
%TD*%
D14*
%TO.C,ULP1*%
X112900000Y-109660000D03*
X112900000Y-103140000D03*
D15*
X101300000Y-107600000D03*
%TD*%
D16*
%TO.C,D1*%
X110500000Y-102450000D03*
X110500000Y-104550000D03*
%TD*%
%LPD*%
M02*
