%TF.GenerationSoftware,KiCad,Pcbnew,8.0.8*%
%TF.CreationDate,2025-02-24T20:22:24+01:00*%
%TF.ProjectId,amoeba-ulp,616d6f65-6261-42d7-956c-702e6b696361,rev?*%
%TF.SameCoordinates,Original*%
%TF.FileFunction,Drillmap*%
%TF.FilePolarity,Positive*%
%FSLAX45Y45*%
G04 Gerber Fmt 4.5, Leading zero omitted, Abs format (unit mm)*
G04 Created by KiCad (PCBNEW 8.0.8) date 2025-02-24 20:22:24*
%MOMM*%
%LPD*%
G01*
G04 APERTURE LIST*
%ADD10C,0.100000*%
%ADD11C,0.200000*%
G04 APERTURE END LIST*
D10*
X11420000Y-11480000D02*
G75*
G02*
X11620000Y-11280000I200000J0D01*
G01*
X10000000Y-9800000D02*
G75*
G02*
X9800000Y-10000000I-200000J0D01*
G01*
X9800000Y-10000000D02*
X9800000Y-11280000D01*
X9800000Y-11280000D02*
G75*
G02*
X10000000Y-11480000I0J-200000D01*
G01*
X11620000Y-10000000D02*
G75*
G02*
X11420000Y-9800000I0J200000D01*
G01*
X11420000Y-9800000D02*
X10000000Y-9800000D01*
X10860000Y-10340000D02*
G75*
G02*
X10560000Y-10340000I-150000J0D01*
G01*
X10560000Y-10340000D02*
G75*
G02*
X10860000Y-10340000I150000J0D01*
G01*
X11620000Y-11280000D02*
X11620000Y-10000000D01*
X10000000Y-11480000D02*
X11420000Y-11480000D01*
X10180000Y-10915000D02*
G75*
G02*
X10080000Y-10915000I-50000J0D01*
G01*
X10080000Y-10915000D02*
G75*
G02*
X10180000Y-10915000I50000J0D01*
G01*
X11350000Y-10365000D02*
G75*
G02*
X11230000Y-10365000I-60000J0D01*
G01*
X11230000Y-10365000D02*
G75*
G02*
X11350000Y-10365000I60000J0D01*
G01*
D11*
X10055777Y-11796484D02*
X10055777Y-11596484D01*
X10055777Y-11596484D02*
X10103396Y-11596484D01*
X10103396Y-11596484D02*
X10131967Y-11606008D01*
X10131967Y-11606008D02*
X10151015Y-11625055D01*
X10151015Y-11625055D02*
X10160539Y-11644103D01*
X10160539Y-11644103D02*
X10170063Y-11682198D01*
X10170063Y-11682198D02*
X10170063Y-11710769D01*
X10170063Y-11710769D02*
X10160539Y-11748865D01*
X10160539Y-11748865D02*
X10151015Y-11767912D01*
X10151015Y-11767912D02*
X10131967Y-11786960D01*
X10131967Y-11786960D02*
X10103396Y-11796484D01*
X10103396Y-11796484D02*
X10055777Y-11796484D01*
X10255777Y-11796484D02*
X10255777Y-11663150D01*
X10255777Y-11701246D02*
X10265301Y-11682198D01*
X10265301Y-11682198D02*
X10274824Y-11672674D01*
X10274824Y-11672674D02*
X10293872Y-11663150D01*
X10293872Y-11663150D02*
X10312920Y-11663150D01*
X10379586Y-11796484D02*
X10379586Y-11663150D01*
X10379586Y-11596484D02*
X10370063Y-11606008D01*
X10370063Y-11606008D02*
X10379586Y-11615531D01*
X10379586Y-11615531D02*
X10389110Y-11606008D01*
X10389110Y-11606008D02*
X10379586Y-11596484D01*
X10379586Y-11596484D02*
X10379586Y-11615531D01*
X10503396Y-11796484D02*
X10484348Y-11786960D01*
X10484348Y-11786960D02*
X10474824Y-11767912D01*
X10474824Y-11767912D02*
X10474824Y-11596484D01*
X10608158Y-11796484D02*
X10589110Y-11786960D01*
X10589110Y-11786960D02*
X10579586Y-11767912D01*
X10579586Y-11767912D02*
X10579586Y-11596484D01*
X10836729Y-11796484D02*
X10836729Y-11596484D01*
X10836729Y-11596484D02*
X10903396Y-11739341D01*
X10903396Y-11739341D02*
X10970063Y-11596484D01*
X10970063Y-11596484D02*
X10970063Y-11796484D01*
X11151015Y-11796484D02*
X11151015Y-11691722D01*
X11151015Y-11691722D02*
X11141491Y-11672674D01*
X11141491Y-11672674D02*
X11122444Y-11663150D01*
X11122444Y-11663150D02*
X11084348Y-11663150D01*
X11084348Y-11663150D02*
X11065301Y-11672674D01*
X11151015Y-11786960D02*
X11131967Y-11796484D01*
X11131967Y-11796484D02*
X11084348Y-11796484D01*
X11084348Y-11796484D02*
X11065301Y-11786960D01*
X11065301Y-11786960D02*
X11055777Y-11767912D01*
X11055777Y-11767912D02*
X11055777Y-11748865D01*
X11055777Y-11748865D02*
X11065301Y-11729817D01*
X11065301Y-11729817D02*
X11084348Y-11720293D01*
X11084348Y-11720293D02*
X11131967Y-11720293D01*
X11131967Y-11720293D02*
X11151015Y-11710769D01*
X11246253Y-11663150D02*
X11246253Y-11863150D01*
X11246253Y-11672674D02*
X11265301Y-11663150D01*
X11265301Y-11663150D02*
X11303396Y-11663150D01*
X11303396Y-11663150D02*
X11322443Y-11672674D01*
X11322443Y-11672674D02*
X11331967Y-11682198D01*
X11331967Y-11682198D02*
X11341491Y-11701246D01*
X11341491Y-11701246D02*
X11341491Y-11758388D01*
X11341491Y-11758388D02*
X11331967Y-11777436D01*
X11331967Y-11777436D02*
X11322443Y-11786960D01*
X11322443Y-11786960D02*
X11303396Y-11796484D01*
X11303396Y-11796484D02*
X11265301Y-11796484D01*
X11265301Y-11796484D02*
X11246253Y-11786960D01*
X11427205Y-11777436D02*
X11436729Y-11786960D01*
X11436729Y-11786960D02*
X11427205Y-11796484D01*
X11427205Y-11796484D02*
X11417682Y-11786960D01*
X11417682Y-11786960D02*
X11427205Y-11777436D01*
X11427205Y-11777436D02*
X11427205Y-11796484D01*
X11427205Y-11672674D02*
X11436729Y-11682198D01*
X11436729Y-11682198D02*
X11427205Y-11691722D01*
X11427205Y-11691722D02*
X11417682Y-11682198D01*
X11417682Y-11682198D02*
X11427205Y-11672674D01*
X11427205Y-11672674D02*
X11427205Y-11691722D01*
M02*
